# xmcd
#
# Track frame offsets:
#	150
#	11489
#	25509
#	38019
#	49178
#	62588
#	79877
#	94826
#	109554
#	121820
#	139914
#	156003
#	168870
#	183336
#	199261
#	209389
#	222436
#	237194
#	256334
#	267237
#	285221
#	300644
#	311503
#	325989
#
# Disc length: 4587
#
# Revision: 1
# Processed by: cddbd v1.5.1PL0 Copyright (c) Steve Scherf et al.
# Submitted via: ExactAudioCopy v0.95a3
# Normalized: r0:TRMNUM
#
DISCID=4311e918
DTITLE=Trio Parada Dura - Grandes Sucessos
DYEAR=1900
DGENRE=
TTITLE0=Fui parpando
TTITLE1=Camisola preta
TTITLE2=Juramento
TTITLE3=Caminhoneiro
TTITLE4=O doutor e a empregada
TTITLE5=Palco do mundo
TTITLE6=Parede e meia
TTITLE7=Toda noite eu dava uma
TTITLE8=Um homem e duas mulheres
TTITLE9=Ultimo adeus
TTITLE10=Tarde demais
TTITLE11=Faz isso nao paixao
TTITLE12=Distante dela
TTITLE13=Bicho bom e mulher
TTITLE14=Arapuca
TTITLE15=Avenida central
TTITLE16=Telefone mudo
TTITLE17=A vaquinha
TTITLE18=Eu quero sim
TTITLE19=Luz da minha vida
TTITLE20=Nao quero piedade
TTITLE21=Um milhao de lagrimas
TTITLE22=Soraia
TTITLE23=O filho do mundo
EXTD=
EXTT0=
EXTT1=
EXTT2=
EXTT3=
EXTT4=
EXTT5=
EXTT6=
EXTT7=
EXTT8=
EXTT9=
EXTT10=
EXTT11=
EXTT12=
EXTT13=
EXTT14=
EXTT15=
EXTT16=
EXTT17=
EXTT18=
EXTT19=
EXTT20=
EXTT21=
EXTT22=
EXTT23=
PLAYORDER=
